<?xml version="1.0" standalone="no"?>
<!DOCTYPE svg PUBLIC "-//W3C//DTD SVG 20010904//EN"
 "http://www.w3.org/TR/2001/REC-SVG-20010904/DTD/svg10.dtd">
<svg version="1.0" xmlns="http://www.w3.org/2000/svg"
 width="1024.000000pt" height="1024.000000pt" viewBox="0 0 1024.000000 1024.000000"
 preserveAspectRatio="xMidYMid meet">

<g transform="translate(0.000000,1024.000000) scale(0.100000,-0.100000)"
fill="#000000" stroke="none">
<path d="M6560 7757 c-43 -16 -52 -21 -118 -72 -29 -21 -52 -45 -52 -51 0 -7
30 -39 67 -71 36 -32 115 -102 174 -155 60 -54 115 -98 122 -98 20 0 92 79
116 127 39 79 21 164 -52 241 -63 65 -188 104 -257 79z"/>
<path d="M6980 7681 c0 -5 4 -12 9 -15 10 -6 51 -78 133 -231 27 -49 46 -79
42 -65 -8 31 -58 131 -90 182 -13 21 -22 38 -19 38 3 0 -4 18 -15 40 -19 37
-60 72 -60 51z"/>
<path d="M4607 7639 c7 -7 15 -10 18 -7 3 3 -2 9 -12 12 -14 6 -15 5 -6 -5z"/>
<path d="M4641 7626 c2 -2 15 -9 29 -15 24 -11 24 -11 6 3 -16 13 -49 24 -35
12z"/>
<path d="M4700 7596 c0 -2 8 -10 18 -17 15 -13 16 -12 3 4 -13 16 -21 21 -21
13z"/>
<path d="M4795 7508 c32 -38 60 -68 63 -68 6 0 -73 93 -99 115 -13 11 3 -10
36 -47z"/>
<path d="M4119 7523 l-34 -38 38 34 c20 19 37 36 37 38 0 8 -8 0 -41 -34z"/>
<path d="M6182 7461 c-39 -38 -72 -76 -72 -84 0 -32 388 -357 426 -357 22 0
47 23 57 52 8 21 28 15 45 -13 12 -18 10 -26 -15 -62 -15 -22 -105 -120 -199
-217 -167 -172 -171 -177 -178 -228 -12 -91 31 -152 107 -152 38 0 97 23 97
38 0 12 85 143 119 182 68 79 121 138 203 226 96 103 128 155 128 209 0 67
-66 158 -123 171 -26 5 -34 1 -68 -36 -33 -36 -41 -40 -58 -30 -27 14 -127
105 -276 252 l-120 118 -73 -69z"/>
<path d="M4042 7431 c-32 -46 -77 -150 -69 -158 2 -2 15 24 27 57 13 33 36 79
52 101 16 23 28 42 26 44 -2 2 -18 -17 -36 -44z"/>
<path d="M4881 7395 c0 -5 6 -21 14 -35 8 -14 14 -20 14 -15 0 6 -6 21 -14 35
-8 14 -14 21 -14 15z"/>
<path d="M4170 7318 c-11 -24 -20 -49 -20 -56 0 -21 28 -69 44 -75 10 -4 6 7
-10 30 -25 37 -25 61 3 116 7 15 11 27 8 27 -3 0 -15 -19 -25 -42z"/>
<path d="M4348 7297 c-12 -45 -12 -56 -3 -43 13 18 31 94 23 101 -2 2 -11 -24
-20 -58z"/>
<path d="M4911 7322 c-1 -7 4 -22 10 -33 6 -11 14 -57 19 -102 l9 -82 -3 80
c-2 44 -11 96 -19 115 -8 19 -16 29 -16 22z"/>
<path d="M5810 7063 c-80 -82 -241 -244 -360 -361 l-215 -213 81 -77 c44 -42
135 -127 201 -189 l119 -111 53 61 c29 34 124 136 211 227 86 91 201 213 254
272 53 59 112 116 131 128 19 12 35 29 35 38 0 15 -112 131 -306 315 l-60 57
-144 -147z"/>
<path d="M4931 7064 c0 -11 3 -14 6 -6 3 7 2 16 -1 19 -3 4 -6 -2 -5 -13z"/>
<path d="M3966 7040 c10 -56 29 -107 65 -166 34 -56 121 -144 143 -144 6 0 2
7 -9 15 -83 61 -147 154 -186 275 -12 35 -16 42 -13 20z"/>
<path d="M4789 6783 c-13 -16 -12 -17 4 -4 9 7 17 15 17 17 0 8 -8 3 -21 -13z"/>
<path d="M4695 6720 c-27 -17 -46 -30 -41 -30 11 0 96 49 96 55 0 7 0 7 -55
-25z"/>
<path d="M4130 6489 c-36 -14 -79 -58 -102 -103 -16 -31 -19 -53 -16 -100 4
-55 8 -62 46 -96 74 -66 158 -72 255 -17 40 22 83 80 72 97 -3 5 -1 10 4 10 7
0 11 23 11 55 0 47 -4 59 -31 90 -41 46 -67 61 -83 45 -6 -6 -6 -10 -1 -8 14
4 57 -41 50 -52 -3 -6 1 -7 9 -4 12 5 16 0 16 -20 0 -14 -4 -26 -10 -26 -15 0
-12 -37 5 -54 9 -8 12 -22 8 -32 -4 -12 -3 -15 5 -10 7 4 12 3 12 -2 0 -6 -7
-13 -16 -16 -9 -3 -12 -11 -8 -18 5 -8 2 -9 -10 -5 -10 4 -29 10 -42 13 -20 5
-24 12 -24 45 0 39 0 39 -40 39 -33 0 -40 3 -40 19 0 11 -9 23 -20 26 -11 3
-20 13 -20 21 0 8 -3 14 -7 14 -5 0 -13 11 -19 25 -10 20 -9 25 5 28 11 3 9 5
-6 6 -12 0 -23 -5 -26 -11 -2 -7 -8 -10 -11 -6 -4 3 5 15 20 25 20 13 47 18
96 18 37 0 60 3 50 7 -25 10 -103 8 -132 -3z m-53 -74 c0 -8 -11 -25 -25 -37
l-25 -23 13 25 c12 24 30 50 35 50 1 0 2 -7 2 -15z"/>
<path d="M3420 6397 c0 -9 -13 -29 -30 -44 -16 -14 -30 -32 -30 -39 0 -7 -3
-14 -8 -16 -4 -1 -24 -28 -44 -59 -20 -30 -43 -61 -51 -67 -8 -7 -26 -31 -41
-55 -27 -41 -85 -87 -109 -87 -7 0 -22 -6 -33 -14 -21 -15 -174 -27 -174 -13
0 12 -16 8 -19 -5 -2 -7 -5 -517 -8 -1133 -4 -1011 -3 -1130 12 -1220 41 -246
147 -471 281 -595 166 -154 408 -268 618 -290 124 -13 2868 -13 2961 0 98 14
183 43 301 100 82 41 118 67 196 140 53 50 102 104 110 120 7 17 18 30 24 30
6 0 26 23 45 52 48 73 53 82 104 195 81 179 78 132 80 1233 1 536 0 947 -2
913 -2 -35 -5 -63 -6 -64 -1 0 -60 -5 -132 -9 -71 -5 -142 -12 -156 -15 -34
-9 -41 10 -49 130 -3 50 -7 -236 -8 -635 -1 -400 -7 -810 -14 -915 -12 -208
-12 -210 -2 -342 5 -78 3 -101 -15 -159 -39 -120 -73 -174 -165 -262 -98 -94
-167 -131 -301 -162 -76 -18 -151 -19 -1455 -21 -1018 -2 -1387 1 -1422 9
-117 29 -269 99 -292 135 -18 27 -36 104 -29 122 3 11 19 8 67 -10 59 -22 64
-23 80 -7 9 9 16 12 16 6 0 -5 9 -10 20 -10 17 0 15 4 -12 25 -114 85 -208
215 -242 332 -43 147 -45 221 -52 1494 -4 671 -8 1222 -10 1224 -2 2 -4 -3 -4
-12z"/>
<path d="M5085 6308 c-50 -37 -117 -72 -173 -88 -47 -15 -39 2 -86 -185 -28
-111 -57 -186 -110 -288 -43 -81 -45 -115 -10 -156 30 -36 59 -39 112 -12 129
65 368 131 474 131 33 0 60 36 83 115 8 28 33 81 55 119 22 37 40 71 40 75 0
4 -15 18 -32 31 -67 49 -182 157 -235 223 -30 37 -60 67 -67 66 -6 0 -29 -14
-51 -31z m99 -253 c57 -52 17 -158 -64 -171 -28 -5 -42 0 -72 23 -54 41 -51
67 14 125 60 54 84 58 122 23z"/>
<path d="M4254 5950 c-11 -4 -38 -28 -58 -52 -35 -40 -37 -46 -33 -97 3 -48 9
-59 45 -93 35 -33 48 -38 87 -38 59 0 120 31 141 72 56 108 -71 253 -182 208z"/>
<path d="M4893 5263 c37 -2 96 -2 130 0 34 2 4 3 -68 3 -71 0 -99 -1 -62 -3z"/>
<path d="M3960 5157 c0 -15 29 -63 46 -78 15 -11 14 -9 -2 16 -12 17 -26 39
-32 50 -6 11 -12 16 -12 12z"/>
<path d="M6363 5063 c42 -2 112 -2 155 0 42 1 7 3 -78 3 -85 0 -120 -2 -77 -3z"/>
<path d="M3959 4725 c-3 -11 -1 -31 3 -45 11 -29 57 -80 72 -80 6 0 0 7 -12
16 -27 19 -44 49 -52 94 -5 26 -8 30 -11 15z"/>
<path d="M6699 4633 c-13 -16 -12 -17 4 -4 9 7 17 15 17 17 0 8 -8 3 -21 -13z"/>
<path d="M4068 4593 c12 -2 32 -2 45 0 12 2 2 4 -23 4 -25 0 -35 -2 -22 -4z"/>
<path d="M4053 4333 c9 -2 23 -2 30 0 6 3 -1 5 -18 5 -16 0 -22 -2 -12 -5z"/>
<path d="M4728 4333 c57 -2 147 -2 200 0 53 1 7 3 -103 3 -110 0 -154 -2 -97
-3z"/>
<path d="M5698 4333 c18 -2 45 -2 60 0 15 2 0 4 -33 4 -33 0 -45 -2 -27 -4z"/>
<path d="M6083 4333 c26 -2 68 -2 95 0 26 2 4 3 -48 3 -52 0 -74 -1 -47 -3z"/>
<path d="M6443 4333 c32 -2 81 -2 110 0 29 2 3 3 -58 3 -60 0 -84 -1 -52 -3z"/>
<path d="M4005 4320 c-3 -6 1 -7 9 -4 18 7 21 14 7 14 -6 0 -13 -4 -16 -10z"/>
<path d="M6731 4234 c0 -11 3 -14 6 -6 3 7 2 16 -1 19 -3 4 -6 -2 -5 -13z"/>
<path d="M3961 4227 c-1 -24 17 -58 43 -79 35 -29 35 -20 0 17 -18 19 -35 45
-37 57 -3 17 -5 18 -6 5z"/>
<path d="M5008 3863 c12 -2 30 -2 40 0 9 3 -1 5 -23 4 -22 0 -30 -2 -17 -4z"/>
<path d="M6093 3863 c9 -2 25 -2 35 0 9 3 1 5 -18 5 -19 0 -27 -2 -17 -5z"/>
<path d="M6292 3863 c37 -2 100 -2 140 0 40 1 10 3 -67 3 -77 0 -110 -1 -73
-3z"/>
<path d="M3989 3833 c-13 -16 -12 -17 4 -4 16 13 21 21 13 21 -2 0 -10 -8 -17
-17z"/>
<path d="M6690 3831 c0 -6 4 -13 10 -16 6 -3 7 1 4 9 -7 18 -14 21 -14 7z"/>
<path d="M3967 3803 c-13 -12 -7 -74 9 -99 21 -31 65 -54 101 -53 20 1 22 3 8
6 -11 2 -30 6 -42 9 -33 7 -76 76 -71 114 5 32 5 33 -5 23z"/>
<path d="M4623 3653 c120 -2 314 -2 430 0 117 1 19 2 -218 2 -236 0 -332 -1
-212 -2z"/>
<path d="M5533 3653 c125 -2 329 -2 455 0 125 1 22 2 -228 2 -250 0 -353 -1
-227 -2z"/>
<path d="M6483 3653 c31 -2 83 -2 115 0 31 2 5 3 -58 3 -63 0 -89 -1 -57 -3z"/>
<path d="M7099 3543 c-13 -16 -12 -17 4 -4 9 7 17 15 17 17 0 8 -8 3 -21 -13z"/>
</g>
</svg>
