<svg fill="none" height="869" viewBox="0 0 1444 869" width="1444" xmlns="http://www.w3.org/2000/svg" xmlns:xlink="http://www.w3.org/1999/xlink"><clipPath id="a"><path d="m0 0h1444v869h-1444z"/></clipPath><g clip-path="url(#a)"><path d="m673.61 802.67c265.356 0 480.47-19.623 480.47-43.83s-215.114-43.83-480.47-43.83-480.47 19.623-480.47 43.83 215.114 43.83 480.47 43.83z" fill="#e6e7e8"/><path d="m59.2199 641.81c-3.48-5.08-6.88-10.58-7.09-16.65-.78-22.83 40.03-30.44 40.35-53.29.17-12.49-12.14-21.18-21.24-30.13s-14.86-25.58-3.98-32.47c2.82-1.79 6.26-2.45 9.23-3.99 9.81-5.09 11.78-18.29 8.13-28.39s-11.33-18.3-17.1-27.45c-22.52-35.75-13.82-81.21-4.42-121.97 1.76-7.62 6.82-17.34 14.7-15.34 4.82 1.22 7.09 6.38 8.68 10.91 6.8 19.32 13.6001 38.63 20.4001 57.95 2.9 8.23 7.51 17.86 16.52 18.84 17.95 1.95 20.6-30.33 38.51-32.55 11.7 9.79 12.57 26.76 11.06 41.57s-4.33 30.61 2.67 43.88c7 13.28 29.14 19.65 37.83 7.32 11.65 16.87-7.87 41.34 2.27 59.09 6.75 11.82 23.73 14.95 31.75 26.02 6.77 9.35 5.49 21.8 4.29 33.12-5.72 54.3-8.32 124.57-75.44 141.62-48.78 12.38-93.5501-43.74-117.1201-78.09z" fill="#37c1d3"/><path clip-rule="evenodd" d="m56.8999 643.4c36.98 53.88 72.3501 81.07 105.3701 81.07 4.98 0 9.9-.62 14.76-1.88 64.786-16.449 71.269-81.392 76.479-133.581l.001-.009c.35-3.54.7-7.03 1.06-10.46 1.22-11.63 2.6-24.82-4.82-35.06-4.13-5.7-10.27-9.37-16.2-12.91l-.006-.004c-6.268-3.738-12.185-7.268-15.374-12.856-4.42-7.74-2.47-17.18-.4-27.18l.003-.013c2.289-11.056 4.654-22.481-1.993-32.097l-2.29-3.31-2.32 3.29c-3.64 5.16-9.66 5.58-12.92 5.37-8.16-.53-16.62-5.73-20.13-12.38-5.82-11.04-4.34-24.38-2.9-37.29.19-1.68.37-3.34.54-5 2.15-21.04-1.79-35.43-12.05-44.01l-.94-.78-1.21.15c-9.939 1.23-15.649 10.248-20.688 18.207l-.002.003c-5.16 8.14-9.62 15.15-17.17 14.34-7.64-.83-11.75-10.09-14.18-16.98l-20.4001-57.95c-1.25-3.56-3.86-10.98-10.64-12.7-2.92-.74-5.84-.29-8.43 1.29-6.45 3.93-9.06 13.35-9.7 16.14-9.96 43.15-17.79 88.27 4.78 124.1 1.93 3.05 4.06 6.01 6.13 8.87l.0303.042c4.2988 5.954 8.3552 11.573 10.6797 17.998 3.2 8.87 1.54 20.63-6.78 24.94-1.1032.576-2.3398 1.028-3.6447 1.505l-.0953.035-.2108.078c-1.8253.675-3.7175 1.375-5.4892 2.502-4.13 2.61-6.59 6.64-7.12 11.63-.98 9.23 4.63 19.32 10.63 25.22 1.6 1.58 3.3 3.15 5.02 4.73l.0501.046c7.6044 7.026 15.4496 14.274 15.3299 23.324-.14 9.94-9.39 16.88-19.19 24.23h-.0004c-10.6199 7.97-21.5996 16.21-21.1496 29.19.24 6.91 4.04 12.99 7.58 18.15zm118.7501 73.77c-34.66 8.81-73.04-17.09-114.1201-76.95-3.23-4.72-6.41-9.77-6.58-15.16-.3498-10.043 8.9869-17.05 18.8792-24.474l.0208-.016.0066-.005c10.458-7.848 21.2634-15.958 21.4334-28.655.1599-11.575-9.0513-20.072-17.1785-27.569l-.0115-.011c-1.68-1.54-3.33-3.06-4.89-4.6-5.96-5.86-9.66-14.33-8.99-20.61.35-3.27 1.88-5.79 4.54-7.48 1.3046-.824 2.8689-1.398 4.5232-2.004l.0968-.036.0851-.031c1.4232-.52 2.8835-1.054 4.3149-1.799 11.48-5.95 13.45-20.84 9.48-31.84-2.6-7.19-7.09-13.41-11.44-19.42l-.1155-.16c-1.9741-2.74-4.0095-5.565-5.8045-8.41-21.42-34-13.75-77.85-4.06-119.84 1.02-4.42 3.51-10.38 7.15-12.6 1.32-.8 2.67-1.01 4.12-.64 3.4.86 5.24 4.89 6.73 9.12l20.4001 57.95c2.93 8.32 8.08 19.53 18.87 20.7 11.069 1.17 16.879-8.009 22.519-16.918l.001-.002.005-.007c4.528-7.148 8.827-13.933 15.435-15.423 8 7.41 10.98 19.96 9.11 38.28-.17 1.64-.35 3.29-.54 4.95-1.53 13.75-3.11 27.97 3.52 40.53 4.43 8.39 14.6 14.71 24.74 15.36 5.99.39 11.19-1.22 15.01-4.56 2.974 7.066 1.217 15.576-.629 24.517l-.011.053-.005.023c-2.188 10.573-4.451 21.504 1.025 31.087 3.923 6.859 10.747 10.937 17.347 14.881l.033.019.067.04c5.665 3.385 11.026 6.589 14.463 11.34 6.16 8.5 4.95 20.03 3.78 31.179v.001c-.36 3.44-.71 6.94-1.06 10.49l-.002.019c-5.3 53.065-11.305 113.203-72.268 128.681z" fill="#1a4a67" fill-rule="evenodd"/><path d="m20.73 682.95c-2.1-2.17-4.25-4.63-4.54-7.64-.68-7.06 8.24-10.47 15.17-11.94s15.6199-6.33 13.43-13.08c-.57-1.76-1.84-3.19-3.1501-4.49-6.68-6.7-15.0099-11.74-20.9499-19.11-5.93-7.38-8.9-18.55-3.3-26.17 1.61-2.19 3.86-4.02 4.73-6.6 1.61-4.82-2.19-9.57-5.33-13.56-8.32005-10.57-30.48-57.59-4.15-61.45 8.55-1.25 16.78 4.28 22.06 11.11 5.2799 6.84 8.4899 15.03 13.1699 22.28 17.3701 26.93 48.36 22.55 60.1801 55.97 1.2 3.39 2.87 7.24 6.34 8.18 8 2.16 13.29-16.03 19.56-3.7 12.64 24.85 25.28 59.06 14.25 86.52-6.65 16.54-22.12 36.89-42.49 32.63-31.38-6.56-62.9801-26.16-84.98-48.95z" fill="#1a4a67"/><path d="m108.54 708.7c-.68 0-1.34-.38-1.67-1.03l-56.4201-111.61c-.47-.92-.1-2.05.83-2.52.92-.47 2.05-.1 2.52.83l56.4201 111.61c.47.92.1 2.05-.83 2.52-.27.13-.56.2-.85.2z" fill="#fff"/><path d="m70.17 632.78c-.27 0-.55-.06-.81-.18l-35.31-16.82c-.93-.45-1.33-1.56-.89-2.5.44-.93 1.57-1.33 2.5-.89l35.32 16.82c.93.45 1.33 1.56.89 2.5-.33.68-1 1.07-1.7 1.07z" fill="#fff"/><path d="m182 726.55c-.87 0-1.65-.61-1.83-1.5l-55.97-276.14c-.2-1.01.45-2 1.46-2.21 1.03-.2 2.01.45 2.21 1.47l55.97 276.13c.2 1.01-.45 2-1.46 2.21-.13.02-.25.04-.38.04z" fill="#fff"/><path d="m144.71 534.76c-.26 0-.52-.05-.77-.16-.94-.42-1.36-1.54-.94-2.48l23.81-52.89c.43-.95 1.54-1.36 2.48-.94s1.36 1.54.94 2.48l-23.81 52.89c-.32.69-1 1.1-1.71 1.1z" fill="#fff"/><path d="m166.04 634.67c-.26 0-.52-.05-.77-.16-.94-.42-1.36-1.54-.94-2.48l23.81-52.89c.42-.95 1.54-1.36 2.48-.94s1.36 1.54.94 2.48l-23.81 52.89c-.31.69-.99 1.1-1.71 1.1z" fill="#fff"/><path d="m150.78 588.58c-.27 0-.54-.06-.8-.18l-51.47-24.3c-.93-.44-1.34-1.56-.89-2.49.44-.94 1.56-1.34 2.5-.89l51.47 24.3c.93.44 1.34 1.56.89 2.49-.32.67-.99 1.07-1.7 1.07z" fill="#fff"/><path d="m64.5599 683.35c25.12-9.77 52.7401 3.21 76.9101 15.13s53.29 23.04 76.98 10.16c29.29-15.93 33.84-22.34 65.66-3.42 20.63 12.25 80.69 30.85 103.74 35.27 17.2 3.29 167.28 32.56 39.44 28.72-36.31-1.09-75.91-4.5-111.08-5.64-76.24-2.46-152.72-10.98-229.0801-7.46-17.13.81-57.12 17.96-71.64 4.39-20.23-18.94 31.4-70.28 49.07-77.15z" fill="#fff"/><path clip-rule="evenodd" d="m427.22 772c7.93.24 14.69.35 20.45.35 32.83 0 33.22-3.51 33.54-6.42.34-3.06 1.13-10.23-92.83-28.21-21.95-4.2-82.1-22.62-102.83-34.92-30.17-17.94-37.86-13.65-60.71-.9-2.37 1.33-4.94 2.76-7.72 4.27-22.52 12.24-50.25 1.71-74.4-10.21-22.01-10.86-52.17-25.73-79.17-15.23-14.82 5.77-50.35 39.47-54.96004 63.41-1.48 7.71.2 13.9 5.01004 18.39 11.19 10.45 33.63 5.05 53.46.27 7.84-1.89 15.25-3.67 20.22-3.91 50.675-2.34 102.31.699 152.255 3.639l.015.001c25.11 1.48 51.07 3 76.59 3.83 17.05.55 35.56 1.66 53.46 2.74l.032.002c19.12 1.149 38.899 2.338 57.588 2.898zm-187.527-15.09c-37.534-2.207-76.023-4.47-114.413-4.47-12.78 0-25.55.25-38.28.83-5.51.26-12.82 2.02-21.28 4.06l-.0723.017c-17.5176 4.207-39.2701 9.431-48.2377 1.063-3.34-3.13-4.43-7.46-3.32-13.23 4.22-21.89 37.95-53.97 51.48-59.23 24.6941-9.6 52.342 4.031 74.58 14.996l.07.034c23.96 11.82 54.64 23.66 79.57 10.11 2.8-1.52 5.38-2.96 7.78-4.3l.017-.009c22.376-12.483 27.69-15.447 55.083.839 21.2 12.58 82.37 31.35 104.65 35.61 44.01 8.43 78.88 17.24 86.94 21.85-3.79.98-14.83 2.26-46.88 1.3-18.61-.56-38.36-1.74-57.45-2.89l-.426-.026c-17.807-1.072-36.19-2.178-53.194-2.724-25.077-.808-50.61-2.305-75.337-3.755l-1.103-.065z" fill="#1a4a67" fill-rule="evenodd"/><path d="m91.54 675.06c-.12 0-.25-.01-.37-.04-1.02-.2-1.68-1.19-1.47-2.2l7.78-38.87c.21-1.02 1.25-1.67 2.2-1.47 1.02.2 1.68 1.19 1.47 2.2l-7.78 38.87c-.17.9-.95 1.51-1.83 1.51z" fill="#fff"/><path d="m282.16 772.35c-.91 0-1.81-.45-2.35-1.27l-29.42-44.81c-.85-1.3-.49-3.04.81-3.89 1.29-.86 3.04-.49 3.89.81l29.41 44.81c.85 1.3.49 3.04-.81 3.89-.47.31-1 .46-1.53.46z" fill="#1a4a67"/><path d="m114.79 765.35c-.76 0-1.52-.31-2.08-.92l-34.46-37.81c-1.04-1.15-.96-2.93.19-3.97s2.92-.96 3.97.18l34.46 37.81c1.04 1.15.96 2.93-.19 3.97-.54.5-1.22.74-1.89.74z" fill="#1a4a67"/><path d="m99.31 748.37c-.58 0-1.17-.18-1.67-.55-1.24-.92-1.5-2.69-.58-3.93l15.47-20.84c.93-1.24 2.68-1.51 3.93-.58 1.24.92 1.5 2.69.58 3.93l-15.47 20.84c-.55.74-1.4 1.13-2.26 1.13z" fill="#1a4a67"/><path d="m267.44 749.94c-.41 0-.83-.09-1.23-.28l-34-16.58c-1.39-.68-1.97-2.36-1.29-3.76.68-1.39 2.36-1.97 3.76-1.3l34 16.58c1.39.68 1.97 2.36 1.29 3.76-.49 1-1.49 1.58-2.53 1.58z" fill="#1a4a67"/><path d="m259.57 737.02c-.22 0-.45-.04-.67-.12-.97-.37-1.45-1.45-1.09-2.42l7.87-20.68c.37-.97 1.46-1.45 2.42-1.08.97.37 1.45 1.45 1.09 2.42l-7.87 20.68c-.28.74-.99 1.2-1.75 1.2z" fill="#fff"/><path d="m771.02 678.57c6.9-.49 12.13-7.6 17.48-13.11s13.38-9.71 18.84-4.35c6.84 6.72 3.66 22.74 10.76 29.01 18.62-.62 56.3-12.57 67.88 2.23 29.2 37.3 24.17 13.2 41.55 21.69 1.32.65 2.75 1.42 3.41 3 1.7 4.04-2.78 7.67-6.32 8.65-35.03 9.7-70.75 5.03-105.98 2.24-17.37-1.38-34.26-4.62-51.54-2.24-12.59 1.74-26.59 7.38-38.49-.35-13.94-9.06-24.18-38.61-15.6-56.89 17.42-37.09 39.58 11.43 58.01 10.12z" fill="#fff"/><path clip-rule="evenodd" d="m830.749 731.755c15.084 1.282 30.413 2.585 45.791 2.585 16.3 0 32.66-1.46 48.86-5.93 2.84-.79 6.41-3.02 7.96-6.22.99-2.04 1.06-4.19.2-6.23-1.12-2.66-3.49-3.82-4.77-4.44-7.173-3.512-11.32-2.166-14.646-1.088l-.024.008c-4.42 1.45-8.27 2.7-25.9-19.82-9.48-12.11-32.17-8.6-52.2-5.5-6.21.96-12.1 1.87-16.78 2.14-2.27-2.7-3.05-7.32-3.87-12.19-.99-5.91-2.02-12.02-6.04-15.97-2.19-2.15-4.93-3.29-7.95-3.29h-.14c-6.64.08-12.51 5.4-14.73 7.69-.92.95-1.85 1.95-2.78 2.96-4.07 4.41-8.28 8.97-12.89 9.3-5.54.37-12.48-5.49-19.17-11.18l-.05-.042c-8.424-7.157-17.108-14.534-26.14-12.588-5.85 1.28-10.76 6.28-14.99 15.3-9.2 19.6 1.56 50.66 16.61 60.44 10.246 6.668 21.882 4.332 32.14 2.272l.01-.002c2.87-.58 5.58-1.12 8.25-1.49 12.57-1.73 24.81-.42 37.76.97 4.37.47 8.75.94 13.17 1.29 3.998.32 8.006.66 12.015 1h.005zm-24.917-7.907c-8.374-.899-16.928-1.818-25.582-1.818-4.49 0-9 .25-13.52.9-2.83.39-5.76.98-8.59 1.55l-.019.004c-10.103 2.028-19.636 3.943-27.971-1.474-12.98-8.43-22.56-36.35-14.59-53.34 3.39-7.23 7.12-11.33 11.09-12.19 6.299-1.373 13.876 5.067 21.243 11.329l.107.091.097.083c7.519 6.394 15.247 12.965 23.113 12.417 6.84-.49 11.81-5.88 16.62-11.1.89-.97 1.78-1.94 2.68-2.86 3.61-3.71 7.63-5.94 10.77-5.98 1.55 0 2.92.53 4.08 1.67 2.707 2.658 3.582 7.822 4.428 12.821l.012.069.003.019c1.029 6.084 2.091 12.365 6.437 16.201l.84.74 1.12-.04c5.18-.18 11.73-1.19 18.66-2.26 17.58-2.72 39.47-6.1 46.91 3.41 18.7 23.88 24.59 24.13 32.07 21.7 2.85-.94 5.33-1.73 10.46.78 1.15.55 1.81.97 2.06 1.56.15.36.28.86-.08 1.6-.65 1.34-2.54 2.74-4.4 3.25-30.536 8.461-62.209 5.766-92.857 3.159l-.103-.009-.945-.08c-3.712-.313-7.409-.625-11.105-.92-4.077-.326-8.119-.757-12.151-1.187-.289-.031-.579-.062-.869-.093z" fill="#1a4a67" fill-rule="evenodd"/><path d="m839.21 749.94c-.46 0-.94-.12-1.38-.36-1.35-.76-1.83-2.48-1.07-3.83l27.48-48.77c.76-1.35 2.47-1.83 3.83-1.07 1.35.76 1.83 2.48 1.07 3.83l-27.48 48.77c-.52.92-1.47 1.43-2.45 1.43z" fill="#1a4a67"/><path d="m1249.06 632.5c-.47-3.71-.54-7.97 2.14-10.58 6.39-6.21 17.92 4.59 25.54-.02 4.12-2.49 4.73-8.3 3.58-12.97s-3.57-9.06-3.87-13.85c-.82-13.15 13.37-21.37 21.61-31.66 7.7-9.62 11.22-23.11 21.81-29.41 3.07-1.83 6.96-2.89 10.21-1.41 5.94 2.7 5.73 11.11 4.41 17.5-3.48 16.8-7.65 36.07 2.8 49.67 4.01 5.22 10.26 9.96 9.81 16.54-.48 6.98-8.33 11.09-10.8 17.63-3.02 8.01 2.78 17.14.49 25.39-2.39 8.63-12.35 12.65-17.39 20.06-2.35 3.46-3.6 7.64-6.3 10.83-11.84 13.98-33.45 3.33-42.42-7.72-11.62-14.31-19.29-31.7-21.62-50z" fill="#37c1d3"/><path d="m1028.43 618.27c25.03-11.31 52.81 4.37 77.13 18.77s53.58 27.89 77.14 12.88c29.14-18.57 33.62-26.12 65.66-3.35 20.78 14.74 81.08 37.46 104.19 42.94 17.25 4.09 167.74 40.42 39.78 34.48-36.35-1.69-76.01-6.16-111.21-7.89-76.32-3.75-152.94-14.68-229.31-11.33-17.14.77-56.96 20.67-71.64 4.42-20.45-22.65 30.65-82.96 48.26-90.92z" fill="#e6e7e8"/><path d="m1263.18 601.65c3.13-5.34 5.37-13.37-.29-16.39-2.32-1.24-5.17-1.02-7.83-.76-8.81.86-17.61 1.71-26.42 2.57-2.8-10.67 3.58-21.68 11.71-29.62 8.13-7.95 18.18-14.14 25.51-22.73s11.52-20.99 5.78-30.58-24.03-10.9-28.13-.6c8.31-19.28 16.63-38.56 24.94-57.84 2.11-4.89 3.57-11.72-1.31-14.36-2.45-1.32-5.52-.86-8.26-.19-13.28 3.25-25.42 10.47-34.2 20.33 10.31-17.01-3.96-38-20.01-50.53-14.57-11.37-36.94-20.16-51.47-8.73-17.57 13.83-5.35 40.26-8.01 61.58-.52 4.19-1.88 8.6-5.39 11.26-5.6 4.26-14.08 2.38-20.75 4.95-12.68 4.89-12.44 21.51-10.04 34.12 6.7 35.11 13.39 70.22 20.09 105.32-11.56-8.72-23.11-17.44-34.67-26.16-5.39-4.06-12.32-8.37-18.7-5.84-3.68 1.46-6.04 4.95-7.05 8.57-4.38 15.8 12.59 28.84 20.95 43.18 17.22 29.57-4.21 119.85 59.39 84.26 47-26.28 87.98-67.14 114.16-111.81z" fill="#37c1d3"/><path clip-rule="evenodd" d="m1114.34 722.13c3 1.55 6.37 2.33 10.12 2.33 7.17 0 15.75-2.84 25.95-8.51 46.39-25.95 88.38-67.09 115.2-112.85 1.47-2.53 4.75-9.02 3.15-14.66-.69-2.47-2.26-4.42-4.54-5.63-3.13-1.676-6.73-1.336-9.37-1.086l-.06.006-23.88 2.32c-1.32-10.75 7.39-20.64 11.41-24.57 3.3-3.23 7.04-6.25 10.66-9.17l.03-.027c5.19-4.191 10.57-8.534 14.99-13.723 7.13-8.36 13-22.25 6.05-33.85-3.6-5.99-11.73-9.73-19.72-9.07-1.33.1-2.59.32-3.78.65l20.47-47.46c3.69-8.54 2.76-15.08-2.55-17.95-3.33-1.8-7.24-1.18-10.26-.44-10.05 2.46-19.48 7.11-27.39 13.41 1.54-15.29-9.94-31.79-24.42-43.09-15.3-11.94-38.87-21.39-54.94-8.73-12.9 10.145-11.29 26.113-9.73 41.565v.025c.75 7.39 1.52 15.02.67 21.85-.57 4.54-1.97 7.6-4.3 9.37-2.61 1.98-6.32 2.337-10.26 2.714l-.06.006-.02.002c-3.22.309-6.57.63-9.72 1.848-11.35 4.38-15.54 17.61-11.79 37.27l18.72 98.16-28.85-21.77c-5.95-4.49-13.77-9.25-21.42-6.21-4.16 1.65-7.34 5.45-8.72 10.43-3.49 12.57 4.74 23.15 12.7 33.38l.1.13c3.01 3.87 6.12 7.865 8.42 11.83 5.11 8.765 6.71 24.094 8.26 38.927v.023.002c2.32 22.219 4.72 45.208 18.88 52.548zm-37.56-142.06c.95-.38 1.95-.55 2.97-.55 4.36 0 9.12 3.1 12.99 6.04l40.49 30.55-21.46-112.48c-1.84-9.66-3.21-26.53 8.29-30.97 2.4-.922 5.17-1.19 8.09-1.474l.17-.016c4.57-.43 9.3-.88 13.19-3.84 3.54-2.69 5.72-7.12 6.47-13.15.93-7.46.13-15.41-.65-23.11v-.045c-1.47-14.573-2.86-28.333 7.61-36.565 12.66-9.96 33.24-2.79 48 8.74 16.13 12.6 28.37 31.97 19.34 46.86l4.5 3.32c8.4-9.44 20.04-16.36 32.77-19.47 2.04-.5 4.6-.96 6.25-.07 3.54 1.92.94 8.74.06 10.78l-24.68 57.24c-.1.21-.2.43-.29.66l5.19 2.15.22-.5c1.87-3.96 6.52-4.76 8.48-4.92 5.91-.48 11.95 2.2 14.44 6.36 5.42 9.04.42 20.36-5.5 27.31-4.05 4.757-8.95 8.719-14.13 12.907l-.14.113c-3.72 3-7.57 6.11-11.06 9.52-10.6 10.36-15.14 22.15-12.47 32.34l.61 2.31 28.8-2.8c2.51-.24 4.71-.38 6.24.44.94.5 1.51 1.2 1.79 2.2.67 2.4-.34 6.44-2.6 10.29-26.33 44.93-67.55 85.31-113.09 110.79-13.58 7.59-23.92 9.65-30.73 6.12-11.47-5.96-13.71-27.41-15.87-48.15-1.68-16.14-3.27-31.38-8.99-41.2-2.53-4.33-5.79-8.53-8.95-12.59l-.02-.027c-7.42-9.55-14.43-18.562-11.7-28.403.89-3.22 2.9-5.73 5.37-6.71z" fill="#1a4a67" fill-rule="evenodd"/><path d="m1288.85 681.78c-.16 0-.31-.02-.48-.06-1-.26-1.6-1.29-1.34-2.29l19.99-76.1c.26-1 1.28-1.6 2.29-1.34 1 .26 1.6 1.29 1.34 2.29l-19.99 76.1c-.21.85-.98 1.4-1.81 1.4z" fill="#fff"/><path d="m1297.97 643.73c-.7 0-1.38-.4-1.7-1.08-.44-.94-.03-2.05.9-2.49l23.36-10.95c.93-.44 2.05-.04 2.49.9s.03 2.05-.9 2.49l-23.36 10.95c-.26.13-.53.18-.79.18z" fill="#fff"/><path d="m1291.58 671.4c-.67 0-1.33-.37-1.66-1.01l-17.26-33.14c-.48-.92-.12-2.05.8-2.53.9-.48 2.05-.12 2.52.8l17.26 33.14c.48.92.12 2.05-.8 2.53-.27.14-.56.21-.86.21z" fill="#fff"/><path d="m1148.82 695.78c-.15 0-.3-.02-.45-.05-1.01-.25-1.62-1.26-1.37-2.27l52.6-213.91c.25-1 1.26-1.63 2.27-1.37 1.01.25 1.62 1.26 1.37 2.27l-52.6 213.91c-.21.85-.97 1.42-1.82 1.42z" fill="#fff"/><path d="m1183.17 556.13c-.59 0-1.17-.28-1.53-.8-.6-.85-.39-2.01.46-2.61l46.99-32.9c.85-.59 2.02-.39 2.61.46.6.85.39 2.01-.46 2.61l-46.99 32.9c-.34.23-.71.34-1.08.34z" fill="#fff"/><path d="m1157.36 671.4c-.57 0-1.13-.26-1.5-.76-.62-.83-.44-2 .38-2.62l59.05-43.93c.83-.61 2-.45 2.62.39.62.83.44 2-.38 2.62l-59.05 43.93c-.33.25-.72.37-1.12.37z" fill="#fff"/><path d="m1056.43 825.03c.51 2.41 3.37 5.02 5.02 3.19.48-.54.63-1.29.73-2 1.23-8.38.62-18.25 7.1-23.7 2.36 4.42 4.71 8.84 7.07 13.25 3.33-12.31 7.21-25.46 17.16-33.43.19 5.72.39 11.43.58 17.15.04 1.06.14 2.26.95 2.93 1.54 1.27 3.74-.46 4.82-2.14 3.97-6.15 6.04-13.8 11.78-18.35 1.06-.84 2.53-1.56 3.7-.9.72.41 1.09 1.24 1.3 2.04 1.47 5.6-2.75 10.88-5.67 15.88-3.37 5.75-5.25 12.37-5.41 19.04 3.54-2.91 7.08-5.83 10.62-8.74 2.12-1.75 5.69-3.33 7.17-1.02.87 1.35.24 3.14-.58 4.51-1.94 3.25-4.83 5.84-6.93 8.98s-3.37 7.33-1.63 10.7c3.82-3.55 9.02-5.58 14.23-5.55-8.01 4.62-8.83 15.87-14.54 23.14-9.81 12.49-39.14 18.96-52.9 9.64-6.62-4.48-9.91-12.48-11.74-19.98-1.16-4.78-2.14-10.29-.26-15.03 2.67-6.69 5.98-6.47 7.43.39z" fill="#e6e7e8"/><path d="m1098.3 841.76c-.77-1.74-1.26-4.07.19-5.3 1.05-.89 2.61-.73 3.94-.4 4.31 1.05 8.32 3.29 11.46 6.42-1.16-5.08-1.12-10.44.12-15.5.33-1.34.96-2.88 2.32-3.15 1.75-.36 2.99 1.61 3.68 3.26 1.75 4.21 3.5 8.41 5.25 12.62 2.09-4.9 5.05-9.42 8.71-13.28.58-.61 1.25-1.25 2.1-1.32 2.1-.19 2.74 2.78 2.53 4.87-.93 9.19-1.62 28.59-12.56 30.37-10.91 1.75-23.73-9.53-27.74-18.59z" fill="#1a4a67"/><path d="m900.57 846.37c.69-.68 1.8-.67 2.76-.49 4.16.76 7.79 3.95 9.08 7.99.26-3.84 1.14-7.63 2.6-11.19.61-1.48 1.37-2.99 2.67-3.92s3.29-1.08 4.41.07c.86.88.98 2.23.99 3.46.02 3.4-.47 6.8-1.47 10.05 5.64-6.66 11.98-13.75 20.57-15.32 1.09-.2 2.33-.27 3.18.44 1.46 1.2.74 3.56-.24 5.17-4.8 7.95-15.62 17.3-25.01 19.19-5.44 1.09-25.74-9.39-19.54-15.45z" fill="#37c1d3"/><path clip-rule="evenodd" d="m912.43 863.2 1.78 5.57.33-4.86c.18.05.36.1.53.15l-.17.57.42-.5c2.1.55 3.96.75 5.34.47 10.33-2.07 21.77-12.05 26.87-20.49 2.08-3.44 1.93-6.9-.38-8.8-2.008-1.642-4.564-1.19-5.442-1.035l-.028.005c-6.22 1.13-11.22 4.68-15.8 9.2.01-.4.01-.79.01-1.19-.02-1.67-.23-3.8-1.79-5.4-2.01-2.07-5.47-2.24-8.06-.4-1.91 1.36-2.91 3.36-3.64 5.14-.65 1.59-1.2 3.22-1.63 4.88-1.95-1.71-4.35-2.9-6.94-3.38-2.77-.51-4.36.39-5.23 1.24-2.23 2.18-2.62 5.11-1.08 8.03 2.25 4.26 8.95 8.59 14.91 10.8zm30.26-23.41c.29-.05.5-.08.65-.09-.08.34-.25.87-.62 1.48-4.37 7.23-14.44 16.11-23.12 17.88l4.15-4.9c5.76-6.8 11.55-13.02 18.94-14.37zm-27.76 18.34c.63.23 1.23.42 1.78.57l2.21-7.18c.92-2.98 1.37-6.08 1.35-9.2-.01-1.2-.17-1.48-.2-1.53-.005.001-.015.003-.028.005-.109.016-.464.069-.732.265-.74.53-1.27 1.66-1.7 2.7-1.35 3.29-2.16 6.76-2.4 10.31zm-12.44-8.37c-.35-.67-.32-.94-.15-1.17.025.003.054.005.086.008.097.008.226.02.384.042 3.16.58 5.94 3.02 6.91 6.08l.41 1.27c-3.33-1.76-6.48-4.04-7.64-6.23z" fill="#1a4a67" fill-rule="evenodd"/><path d="m1240.25 675.47c-7.69-2.59-16.98-3.52-23.98.18-10.35 5.46-11.91 18.76-22.96 23.19-13.77 5.52-29.4-7.08-44.49-4.92-12.91 1.85-21.22 13.94-34.25 15.01-6.21.51-12.22-1.63-18.11-3.31-5.9-1.68-12.59-2.89-18.21-.65-5.61 2.24-8.35 9.36-3.53 12.62 2.16 1.46 5.12 1.75 7.91 1.97 47.77 3.8 96.09 5.05 144.04 3.03 13.65-.58 37.02-.05 42.48-13.61 5.56-13.79-15.39-28.96-28.9-33.51z" fill="#1a4a67"/><path d="m1226.68 724.45c-.17 0-.34-.02-.52-.07-1-.28-1.57-1.32-1.28-2.32l8.47-29.58c.28-.99 1.3-1.58 2.32-1.28 1 .28 1.57 1.32 1.28 2.32l-8.47 29.58c-.24.81-.99 1.35-1.8 1.35z" fill="#fff"/><path d="m1231.31 708.29c-.65 0-1.28-.34-1.62-.94l-4.63-8.05c-.52-.9-.2-2.04.69-2.56.89-.51 2.04-.21 2.56.69l4.63 8.05c.52.9.2 2.04-.69 2.56-.3.17-.63.25-.94.25z" fill="#fff"/><path d="m809.03 730.55h-265.97c-8.11 0-14.75-6.64-14.75-14.75v-2.68c0-8.11 6.64-14.75 14.75-14.75h265.97c8.11 0 14.75 6.64 14.75 14.75v2.68c0 8.11-6.64 14.75-14.75 14.75z" fill="#a7a9ac"/><path d="m726.42 730.55h-100.75c-6.33 0-11.51-5.18-11.51-11.51v-119.77c0-6.33 5.18-11.51 11.51-11.51h100.75c6.33 0 11.51 5.18 11.51 11.51v119.78c-.01 6.33-5.18 11.5-11.51 11.5z" fill="#a7a9ac"/><path d="m1138.83 630.91h-925.58c-17.43 0-31.69-14.26-31.69-31.69v-564.61c0-17.43 14.26-31.68996 31.69-31.68996h925.57c17.43 0 31.69 14.25996 31.69 31.68996v564.61c.01 17.43-14.25 31.69-31.68 31.69z" fill="#e6e7e8"/><path clip-rule="evenodd" d="m213.26 633.72h925.57c19.02 0 34.5-15.48 34.5-34.5v-564.61c0-19.02-15.48-34.500015-34.5-34.500015h-925.57c-19.02 0-34.5 15.480015-34.5 34.500015v564.61c0 19.02 15.48 34.5 34.5 34.5zm-28.88-599.11c0-15.92 12.96-28.88001 28.88-28.88001h925.57c15.92 0 28.88 12.96001 28.88 28.88001v564.61c0 15.92-12.96 28.88-28.88 28.88h-925.57c-15.92 0-28.88-12.96-28.88-28.88z" fill="#1a4a67" fill-rule="evenodd"/><path d="m228.8 17.53c-17.11 0-31.11 14-31.11 31.11v200.94c97.93-78.62 197.27-155.83 297.6-232.05z" fill="#eff0fc"/><path d="m1119.48 17.53h-88.87-535.32c-100.33 76.22-199.67 153.44-297.6 232.05v210.97 75.96c0 17.11 14 31.11 31.11 31.11h890.68c17.11 0 31.11-14 31.11-31.11v-487.87c0-17.11-14-31.11-31.11-31.11z" fill="#fff"/><g fill="#1a4a67"><path d="m674.14 603.81c4.75 0 8.6-3.85 8.6-8.6s-3.85-8.6-8.6-8.6-8.6 3.85-8.6 8.6 3.85 8.6 8.6 8.6z"/><path d="m1013.12 354.49c-1.32 0-2.64-.46-3.71-1.4l-274.41-241.02c-2.33-2.05-2.56-5.6-.51-7.93s5.6-2.57 7.93-.51l274.41 241.02c2.33 2.05 2.56 5.6.51 7.93-1.1 1.26-2.66 1.91-4.22 1.91z"/><path d="m700.48 152.76c-2.39 0-4.77-.91-6.6-2.72-3.67-3.65-3.69-9.58-.05-13.25l75.67-76.22c3.65-3.67 9.57-3.69 13.25-.05 3.67 3.65 3.69 9.58.05 13.25l-75.67 76.22c-1.83 1.84-4.24 2.77-6.65 2.77z"/><path d="m912.562 329.667h3.74996v532.675h-3.74996z" transform="matrix(.99730989 -.07330069 .07330069 .99730989 -21.709922 67.778262)"/><path d="m999.936 329.774h3.74994v532.671h-3.74994z" transform="matrix(.99731719 -.0732013 .0732013 .99731719 -21.457242 74.081333)"/><path d="m918.29 380.39h87.42v3.75h-87.42z"/><path d="m922.79 426.76h87.42v3.75h-87.42z"/><path d="m927.3 473.12h87.42v3.75h-87.42z"/><path d="m927.3 519.49h87.42v3.75h-87.42z"/><path d="m931.8 565.85h87.42v3.75h-87.42z"/><path d="m936.3 612.22h87.42v3.75h-87.42z"/><path d="m936.3 658.58h87.42v3.75h-87.42z"/><path d="m940.81 704.95h87.42v3.75h-87.42z"/></g><path d="m1075.61 571.25 24.3 24.52 9.03-7.28-26.87-24.07c0-.01-5.5 3.26-6.46 6.83z" fill="#fff"/><path clip-rule="evenodd" d="m1072.48 572.08 27.22 27.46 13.58-10.95-30.87-27.65-1.77 1.05c-1.09.65-6.55 4.08-7.74 8.53zm27.65 19.9-21.11-21.29c.69-.93 1.76-1.91 2.82-2.72l22.77 20.4z" fill="#1a4a67" fill-rule="evenodd"/><path d="m1086.6 640.86s6.84-5.4 16.39-18.03c9.56-12.64 19.61-27.13 19.38-31.09-.23-3.97-15.86-16.51-18.71-12.09s2.43 10.28-8.32 14.39c-9.21 3.52-3.43 14.82-8.48 28.05s-7.11 18.57-.26 18.77z" fill="#d1d3d4"/><path clip-rule="evenodd" d="m1086.52 643.67 1.02.03.79-.63c.29-.23 7.23-5.77 16.89-18.54 20.3-26.84 20.05-31.28 19.95-32.95-.3-5.05-11.65-13.86-17.29-15.35-3.98-1.06-5.84.74-6.59 1.9-1.39 2.16-1.45 4.45-1.49 6.3v.004c-.07 3.078-.11 4.937-5.47 6.986-7.13 2.73-7.45 9.27-7.75 15.6-.2 4.24-.43 9.04-2.38 14.14-4.11 10.76-6.17 16.17-3.77 19.77 1.75 2.618 5.02 2.71 6.09 2.74zm-1.36-5.847c-.02-.008-.04-.013-.04-.013-.72-1.4 1.85-8.14 4.36-14.72 2.24-5.86 2.51-11.38 2.72-15.81.32-6.82.74-9.32 4.14-10.62 8.89-3.396 9.01-8.627 9.09-12.097v-.013c.03-1.36.07-2.3.41-3.04 3.19.02 13.02 7.91 13.73 10.36-.04 1.68-4.04 9.73-18.82 29.26-7.31 9.67-13.02 15.03-15.07 16.83-.3-.053-.45-.112-.52-.137z" fill="#1a4a67" fill-rule="evenodd"/><path d="m1058.56 510.09c2.38 9.38 3.07 19.54 8.21 27.21 7.81 11.66 21.52 15.01 34.06 17.56-3.58 11.47-10.48 21.07-17.24 30.4-5 6.9-10.12 13.92-16.79 18.55-2.26-8.91-4.55-17.91-8.58-25.93-3.6-7.16-8.48-13.33-12.71-20.02-12.56-19.87-19.07-43.88-25.38-67.41-3.29-12.28-27.15-108.42 5.35-86.26 22.06 15.04 16.79 41.66 33.08 105.9z" fill="#fff"/><path clip-rule="evenodd" d="m1064.06 604.5 1 3.93 3.32-2.3c7.13-4.95 12.62-12.52 17.46-19.2l.03-.045c6.5-8.979 13.87-19.145 17.62-31.175l.93-2.97-3.05-.62c-13.02-2.65-25.28-5.9-32.29-16.37-3.41-5.105-4.71-11.538-6.08-18.362l-.02-.098-.02-.11c-.52-2.604-1.05-5.216-1.7-7.77-5.47-21.59-8.52-39.01-10.96-53.01l-.01-.042c-4.94-28.274-7.67-43.853-23.25-54.478-6.14-4.18-11.2-4.92-15.04-2.19-15.63 11.09 3.19 83.3 5.39 91.5 6.29 23.47 12.8 47.74 25.72 68.18 1.46 2.31 2.99 4.55 4.53 6.8l.04.064c2.95 4.306 5.73 8.378 8.01 12.906 3.91 7.79 6.18 16.72 8.37 25.36zm-48.79-200.24c.55-.39 1.2-.56 1.91-.56 2.08 0 4.67 1.41 6.7 2.79 13.63 9.3 16.06 23.18 20.89 50.85l.01.057c2.46 14.081 5.52 31.603 11.04 53.373.62 2.463 1.12 4.984 1.63 7.496l.02.114c1.42 7.09 2.9 14.43 6.95 20.48 7.57 11.3 20.09 15.35 32.71 18.09-3.68 9.896-9.84 18.403-15.82 26.649l-.01.011c-3.94 5.45-8 11.05-12.85 15.32-1.97-7.59-4.19-15.28-7.73-22.32-2.44-4.849-5.45-9.255-8.36-13.511l-.07-.109c-1.5-2.19-3-4.38-4.42-6.63-12.46-19.72-18.86-43.57-25.04-66.64-8.49-31.68-16.46-79.15-7.56-85.46z" fill="#1a4a67" fill-rule="evenodd"/><path d="m1001.1 607.06-7.41 33.71 11.02 3.64 5.64-35.63c0-.01-5.73-2.86-9.25-1.72z" fill="#fff"/><path clip-rule="evenodd" d="m990.39 642.64 16.57 5.47 6.48-40.94-1.85-.92c-1.13-.57-6.95-3.3-11.36-1.88l-1.53.5zm12.06-1.94-5.47-1.8 6.44-29.29c1.15.08 2.56.45 3.81.9z" fill="#1a4a67" fill-rule="evenodd"/><path d="m948.58 654.05s8.24 2.81 24.04 3.99c15.8 1.17 33.43 1.76 36.64-.59 3.21-2.34 5.27-22.28 0-22.28s-7.31 7.62-16.6.82c-7.96-5.83-14.31 5.16-28.16 8.09s-19.47 4.11-15.92 9.97z" fill="#d1d3d4"/><path clip-rule="evenodd" d="m972.41 660.85c10.23.76 17.68 1.04 23.13 1.04 12.39 0 14.43-1.472 15.36-2.145l.01-.005c4.07-2.98 5.32-17.3 3.51-22.85-1.28-3.92-3.79-4.51-5.17-4.51-2.57 0-4.53 1.2-6.1 2.17v.002c-2.63 1.609-4.212 2.576-8.84-.812-6.166-4.517-11.822-1.235-17.299 1.943l-.011.007-.068.039c-3.663 2.12-7.805 4.518-13.132 5.641-11.26 2.38-16.91 3.58-18.63 7.55-1.25 2.89.44 5.68 1 6.6l.53.87.97.33c.35.12 8.77 2.95 24.74 4.13zm.42-5.62c-12.08-.89-19.68-2.78-22.31-3.53-.16-.38-.18-.55-.18-.56.79-1.36 7.83-2.85 14.74-4.31 6.106-1.303 10.858-4.05 14.687-6.264l.063-.036c5.9-3.43 8.24-4.43 11.17-2.28 7.68 5.62 12.14 2.88 15.1 1.06 1.17-.72 1.98-1.19 2.78-1.31 1.71 2.69.41 15.23-1.26 17.16-1.43.88-10.36 1.88-34.79.07z" fill="#1a4a67" fill-rule="evenodd"/><path d="m972.45 614.57c.6-1.2 2.05-2.04 3.32-2.92 11.57-8.08 9.73-21.64 8.71-33.45-2.42-28.01 3.83-55.7 7.26-83.35 3.34-26.99 2.35-54.35-2.16-81.15-1.64-9.74-3.8-24.77 10.86-21.02 6.95 1.78 13.9 1.95 20.99 1.17 3.73-.41.04-1.85 3.73-.41 12.56 4.9 2.95 17.52-.22 25.79-6.31 16.47-.31 48.53-2.29 66.28-2.8 25.16-4.47 46.05-3.06 71.28.69 12.36 1.62 24.71 2.48 37.06.5 7.2 5.48 23.24 1.07 29.45-6.06 8.53-30.11-.55-38.28-1.27-6.16-.54-14.47-3.39-12.41-7.46z" fill="#fff"/><path clip-rule="evenodd" d="m993.103 626.543c6.447 1.509 13.737 3.217 19.967 3.217 5.28 0 9.78-1.22 12.37-4.81 3.89-5.46 2.12-15.32.55-24.02-.5-2.79-.97-5.42-1.1-7.25l-.55-7.79c-.69-9.74-1.38-19.49-1.93-29.24-1.36-24.21.09-44.3 3.04-70.81.79-7.09.36-16.15-.1-25.74-.68-14.2-1.45-30.3 2.21-39.85.56-1.486 1.34-3.105 2.16-4.793l.06-.117c2.78-5.76 5.93-12.29 3.73-17.9-1.16-2.93-3.63-5.16-7.34-6.61-2.06-.8-3.09-1.2-4.39-.33l-.77.58c-7.34.8-13.83.43-19.88-1.11-5.13-1.3-9.11-.7-11.84 1.81-5.42 4.99-3.59 15.89-2.49 22.4 4.62 27.45 5.34 54.48 2.14 80.33-.762 6.171-1.693 12.459-2.599 18.58-.081.545-.161 1.088-.241 1.63l-.014.09c-3.085 20.742-6.273 42.171-4.416 63.64l.15 1.75.002.023c.979 11.003 1.991 22.372-7.672 29.127l-.56.38-.021.014c-1.315.897-2.794 1.905-3.629 3.556-.86 1.7-.83 3.53.08 5.16 2.35 4.22 10.27 5.99 14.58 6.37 1.9.17 4.96.88 8.49 1.71zm-18.173-10.643.03-.06c.19-.37 1.15-1.02 1.77-1.43l.63-.43c12.34-8.62 11.07-22.84 10.05-34.26l-.15-1.74c-1.798-20.815 1.342-41.929 4.379-62.347l.011-.073.119-.806c.953-6.418 1.935-13.027 2.741-19.544 3.27-26.39 2.54-53.97-2.18-81.96-.79-4.67-2.43-14.41.75-17.33 1.23-1.14 3.47-1.31 6.64-.5 6.74 1.72 13.94 2.13 21.99 1.24.98-.11 1.75-.32 2.35-.61.01.005.02.007.02.01.01.002.02.005.03.01 2.23.87 3.59 1.99 4.15 3.43 1.31 3.323-1.27 8.659-3.55 13.372l-.01.028c-.91 1.88-1.78 3.7-2.41 5.34-4.08 10.65-3.32 26.65-2.58 42.12v.105c.44 9.321.86 18.13.12 24.745-2.99 26.81-4.45 47.15-3.07 71.75.55 9.78 1.24 19.55 1.94 29.32l.55 7.78c.15 2.084.61 4.665 1.14 7.65l.04.2.01.034c1.16 6.461 2.91 16.202.39 19.736-3.41 4.8-17.84 1.42-26.46-.6h-.001c-3.74-.88-6.969-1.64-9.279-1.84-5.62-.5-9.78-2.57-10.16-3.34z" fill="#1a4a67" fill-rule="evenodd"/><path d="m970.7 327.96c-11.42 8.63-26.84 23.94-37.83 6.14-5.75-9.32-9.81-19.55-15.18-29.09-3.81-9.89-8.38-20.33-8.03-31.15.36-11.05-.29-25.95-1.35-28.66s-13.74-14.61-13.9-9.66 7.08 23.12-2.34 14.52c-2.83-2.58-1.16 2.2-.2 7.95s8.63 13.36 8.63 13.36c7.61 31.98 5.4 69.88 40.77 85.58 9.82 4.36 25.27-9.73 33.15-14.57 2.79-1.72 30.4-20.69 31.14-19.96-3.25-3.19-6.5-6.39-9.75-9.58-.78-.77-1.63-1.57-2.71-1.73-1.26-.19-2.46.54-3.5 1.27-5.19 3.64-9.73 8.1-14.6 12.16-1.4 1.17-2.83 2.31-4.3 3.42z" fill="#fff"/><path clip-rule="evenodd" d="m940.13 359.53c1.67.74 3.42 1.06 5.23 1.06 8.194 0 17.522-6.649 24.742-11.795l.148-.105.032-.023c2.117-1.521 4.026-2.892 5.628-3.877.739-.453 3.176-2.09 6.393-4.252l.147-.098c6.46-4.34 21.61-14.51 23.76-15.33-.52.2-1.7.19-2.59-.68l3.93-4.01-9.76-9.58c-.89-.88-2.24-2.2-4.26-2.51-2.531-.369-4.546 1.05-5.53 1.743l-.01.007c-3.583 2.508-6.869 5.402-10.045 8.2l-.045.04c-1.55 1.37-3.11 2.74-4.69 4.06-1.37 1.15-2.77 2.26-4.2 3.34-1.165.888-2.376 1.84-3.623 2.821l-.177.139-.021.016c-7.055 5.566-15.036 11.863-21.639 10.694-3.1-.54-5.81-2.76-8.28-6.76-3.18-5.15-5.91-10.74-8.54-16.15l-.064-.131c-2.02-4.139-4.111-8.422-6.416-12.539l-1.07-2.75-.008-.019c-3.437-8.804-6.992-17.908-6.692-27.081.32-9.72-.12-26.14-1.54-29.77-1.1-2.81-11.52-13.35-16.19-12.58-1.84.31-3.07 1.82-3.14 3.85-.06 1.798.532 4.406 1.217 7.422l.013.058c.026.114.052.231.08.352.311 1.37.712 3.129.96 4.618-1.61-1.42-3.12-1.75-4.51-.96-2.3 1.3-1.8 3.76-.97 7.84.23 1.13.48 2.39.7 3.7.93 5.61 6.7 12.07 8.84 14.3 1.451 6.238 2.561 12.827 3.638 19.219l.042.251.001.008c4.47 26.647 9.092 54.203 38.509 67.262zm-32.97-68.21c-1.12-6.71-2.29-13.65-3.85-20.28l-.02-.82-.82-.82c-2.43-2.44-7.21-8.06-7.83-11.82-.16-.94-.33-1.85-.5-2.71 1.13.41 2.35.48 3.52-.2 3.18-1.85 2.12-6.51.65-12.96-.034-.152-.069-.305-.104-.458-.219-.97-.444-1.964-.616-2.862 3.03 2.15 7.43 6.46 8.11 7.85.71 1.88 1.56 15.53 1.16 27.54-.34 10.33 3.43 19.99 7.08 29.33l1.13 2.92.18.37c2.29 4.07 4.39 8.38 6.42 12.55l.198.405c2.638 5.394 5.363 10.967 8.612 16.225 3.32 5.37 7.38 8.52 12.09 9.35 9.098 1.608 18.117-5.512 26.09-11.806l.03-.024c1.27-1.01 2.51-1.99 3.71-2.89 1.5-1.14 2.97-2.31 4.42-3.51 1.62-1.36 3.21-2.76 4.8-4.16 3.21-2.84 6.26-5.51 9.6-7.86 1.03-.72 1.38-.79 1.46-.79.26.06.9.69 1.17.96l6.93 6.81c-3.81 2.26-10.21 6.54-21.48 14.11-.394.264-.777.52-1.146.767-2.627 1.757-4.573 3.058-5.204 3.453-1.74 1.07-3.81 2.55-6 4.12-7.26 5.21-18.25 13.08-24.54 10.28-26.65-11.84-30.83-36.72-35.25-63.07z" fill="#1a4a67" fill-rule="evenodd"/><path d="m987.66 399.05c0-1.19-1.98-32.01 2.37-51.77s0-36.75 15.02-48.61 27.27 3.95 31.22 12.25.38 50.71.94 64.67c.57 14.27 0 11.69 3.15 27.05 2.01 9.82 20.81 32.9-2.92 25.99-8.06-2.35-24.96-3.36-31.86-5.8-6.17-2.18-13.48-3.72-18.36-8.77-1.54-1.57.44-15.01.44-15.01z" fill="#37c1d3"/><path clip-rule="evenodd" d="m1036.65 431.32c2.35.69 5.2 1.38 7.83 1.38 2.44 0 4.69-.59 6.17-2.37 3.55-4.21.06-11.37-3.64-18.94l-.09-.182c-1.65-3.403-3.35-6.898-3.81-9.158-2.61-12.74-2.61-12.74-2.89-21.02l-.2-5.57c-.18-4.52.09-12.4.38-20.75.78-22.74 1.13-39.28-1.6-45.01-3.27-6.86-10.19-15.61-18.95-17.65-5.62-1.3-11.19.18-16.55 4.41-11.48 9.07-12.59 21.02-13.76 33.67-.49 5.32-1 10.82-2.26 16.54-2.59 11.8-3.47 30.06-2.47 51.44l.03.78c-2.12 14.56-.46 16.29.35 17.12 4.437 4.597 10.522 6.558 15.89 8.287l.01.003.28.089c1.11.359 2.21.712 3.27 1.091 3.88 1.37 10.19 2.25 16.88 3.18 5.64.78 11.48 1.6 15.13 2.66zm-33.84-12.36c-4.83-1.55-9.82-3.16-13.27-6.53-.35-1.79.16-7.97.9-12.96l.03-.41c0-.108-.014-.409-.036-.887-.004-.097-.009-.201-.014-.313-.97-20.9-.14-38.65 2.35-49.97 1.329-6.018 1.851-11.643 2.357-17.09l.013-.14c1.15-12.4 2.06-22.2 11.65-29.77 4.01-3.16 7.87-4.26 11.79-3.34 7.28 1.69 12.95 9.97 15.15 14.59 2.35 4.93 1.6 26.59 1.05 42.4-.31 8.82-.57 16.44-.38 21.17l.2 5.54c.28 8.59.34 9 3 21.96.61 2.992 2.42 6.7 4.34 10.637l.02.033.07.145c1.7 3.496 5.49 11.315 4.32 12.705-.01.01-1.26 1.21-8.13-.8-4.04-1.17-10.09-2.02-15.93-2.83-6.12-.85-12.44-1.73-15.78-2.91-.96-.342-1.94-.659-2.93-.981-.26-.083-.51-.165-.77-.249z" fill="#1a4a67" fill-rule="evenodd"/><path d="m979.27 314.52s27.74-29.57 38.38-16.15-27.02 41.09-27.02 41.09l-17.09-22.22z" fill="#78dfe8"/><path clip-rule="evenodd" d="m969.19 316.19 20.89 27.16 2.22-1.62.019-.014c1.379-1.025 27.861-20.702 29.901-35.856.47-3.54-.32-6.65-2.37-9.23-2.24-2.83-5.34-4.4-8.97-4.55-12.92-.56-30 16.69-33.29 20.13zm21.97 19.34-13.26-17.25 3.06-1.45.37-.39c4.95-5.28 19.66-18.76 28.94-18.76.13 0 .26 0 .39.01 2.03.08 3.56.85 4.8 2.42 1.08 1.36 1.47 3 1.2 4.99-1.31 9.74-17.22 23.96-25.5 30.43z" fill="#1a4a67" fill-rule="evenodd"/><path d="m996.76 211.52c-9.5 9.03-12.66 22.91-13.05 36.01-.2 6.63.2 13.34 2.01 19.72 2.01 7.12 5.71 13.62 8.77 20.35.53 1.17 1.05 2.4.94 3.68-.14 1.52-1.14 2.8-2 4.06-5.7 8.41-5.67 20.32.08 28.7 2.02 2.94 4.86 5.56 8.36 6.21 4.36.82 10.52-.65 11.99 3.54.73 2.09-.44 4.47.25 6.57 1.02 3.09 5.2 3.61 8.4 2.99s6.74-1.74 9.52-.04c3.65 2.24 3.77 8.14 7.57 10.1 1.43.74 3.11.75 4.73.75 6.64-.01 9.62 5.03 16.26 5.02 2.97-.01 9.8-5.13 12.24-6.82 2.44-1.68 3.51-5.64 1.31-7.62-2.13-1.92-6.03-1.06-7.74-3.36-2.73-3.7 4.1-8.31 2.97-12.77-.38-1.51-1.66-2.7-1.94-4.23-.33-1.82.82-3.54 1.35-5.32 1.74-5.8-3.14-11.35-7.85-15.15s-10.19-8.19-10.17-14.24c.02-7.15 7.86-12.21 8.63-19.33.82-7.6-6.71-14.17-6.07-21.78.39-4.64 3.78-8.6 4.27-13.23.57-5.34-2.77-10.22-5.95-14.55-2.38-3.24-4.82-6.54-8.12-8.82-4.47-3.09-7.95-1.02-12.37-2.2-3.94-1.05-6.74-4.53-11.18-5.33-8.16-1.48-17.23 1.4-23.21 7.09z" fill="#1a4a67"/></g></svg>